<?xml version="1.0" encoding="utf-8"?>
<!-- Generator: Adobe Illustrator 22.0.0, SVG Export Plug-In . SVG Version: 6.00 Build 0)  -->
<svg version="1.1" id="Logo" xmlns="http://www.w3.org/2000/svg" xmlns:xlink="http://www.w3.org/1999/xlink" x="0px" y="0px"
	 viewBox="0 0 100 96" style="enable-background:new 0 0 100 96;" xml:space="preserve">
<style type="text/css">
	.st0{fill:#007FFF;stroke:#007FFF;stroke-width:0.5;stroke-miterlimit:10;}
</style>
<path id="bottom-arch" class="st0" d="M13.8,68.8c0,0.1,2.4-3.4,2.4-3.4l-11.1-19c-0.8-1.3-0.8-3.8,0-5.1L23.5,9.8
	c0.8-1.3,2.9-2.6,4.5-2.6h36.6c1.6,0,3.7,1.2,4.5,2.6L79,27l2.4-3.2L72.3,7.9c-1.4-2.5-4.8-4.4-7.7-4.4H27.9c-2.9,0-6.2,1.9-7.7,4.4
	L1.9,39.5c-1.4,2.5-1.4,6.4,0,8.8L13.8,68.8z"/>
<path id="top-arch" class="st0" d="M90.6,39.5L89,36.9l-2.4,3.3l0.7,1.2c0.8,1.3,0.8,3.8,0,5.1L69,78.1c-0.8,1.3-2.9,2.6-4.5,2.6
	H27.9c-1.3,0-3.1-0.9-4-2l-2.4,2.8c1.7,1.5,4.3,2.8,6.4,2.8h36.6c2.9,0,6.2-1.9,7.7-4.4l18.3-31.6C92,45.9,92,42,90.6,39.5z"/>
<g id="Letters">
	<path id="C" class="st0" d="M97.2,8.3c-0.4,0.9-0.8,1.8-1.3,2.8c-0.4,1-0.9,1.9-1.3,3c-0.1,0-0.2-0.1-0.6,1
		c-0.4,0.8-0.7,1.6-1.1,2.4c-0.4,0.8-0.8,1.6-1.2,2.4c-0.2,0.4-0.4,0.8-0.6,1.2c-0.2,0.4-0.4,0.8-0.6,1.2c-0.4,0.8-0.8,1.6-1.1,2.3
		c-0.4,0.7-0.7,1.5-1.1,2.1c-0.4,0.7-0.7,1.3-1,1.9c-0.7,1.2-1.2,2.2-1.7,2.9c-0.1,0.1-0.1,0.2-0.2,0.4c-0.1,0.1-0.2,0.3-0.3,0.4
		c-0.2,0.3-0.4,0.6-0.6,0.9c-0.2,0.4-0.5,0.8-0.8,1.3c-0.2,0.3-0.3,0.6-0.5,0.9c-0.2,0.3-0.4,0.7-0.6,1l0.4-0.8l0.2-0.4l0.2-0.4
		c0.3-0.5,0.6-1,0.8-1.5c-0.1,0-0.2-0.1-0.2-0.1c-0.3,0.5-0.6,1-0.9,1.6c-0.1,0.3-0.3,0.5-0.5,0.8c-0.2,0.3-0.3,0.5-0.5,0.8
		c-0.6,1.1-1.3,2.2-2,3.3c-0.7,1.1-1.3,2.2-2,3.3c-0.3,0.5-0.7,1.1-1,1.6c-0.2,0.3-0.3,0.5-0.5,0.8c-0.2,0.2-0.3,0.5-0.5,0.7
		c0,0-0.1-0.1-0.1-0.1L75,48.2c-0.4,0.4-0.3,0.1,0.2-0.7c0.5-0.8,1.3-2.2,2.2-3.7c0.2-0.4,0.5-0.8,0.7-1.2c0.1-0.2,0.2-0.4,0.4-0.6
		c0.1-0.2,0.2-0.4,0.4-0.6c0.5-0.9,1-1.7,1.5-2.6c0.1-0.2,0.2-0.4,0.4-0.6c0.1-0.2,0.2-0.4,0.4-0.6c0.2-0.4,0.5-0.8,0.7-1.2
		c0.2-0.4,0.4-0.8,0.6-1.1c0.2-0.4,0.4-0.7,0.5-1c-0.1,0-0.2-0.1-0.2-0.1c-0.2,0.3-0.4,0.7-0.6,1l-0.6,1L81.4,36
		c0.2-0.4,0.4-0.7,0.6-1.1c0.2-0.4,0.4-0.7,0.6-1.1c0.4-0.7,0.8-1.4,1.2-2.2c0.4-0.7,0.8-1.4,1.1-2.1c0.2-0.4,0.4-0.7,0.6-1.1
		c0.2-0.4,0.4-0.7,0.5-1.1c0.4-0.7,0.7-1.4,1.1-2.1c0.2-0.4,0.4-0.7,0.5-1.1c0.2-0.4,0.4-0.7,0.5-1.1c0.1-0.1,0.1-0.2,0.2-0.4
		c0,0-0.1,0-0.4,0.6c2-4.1,4.4-9.1,6.2-13.2c0.4-1.1-0.2-0.1-1.7,3c-1.5,3.1-2.4,5.2-3.9,8.3l-0.1-0.1c0.5-1,1.1-2.3,1.8-3.6
		c0.6-1.3,1.2-2.6,1.7-3.7c0.4-1.1-1.1,2-0.7,0.9c0.2-0.5,0.5-1,0.7-1.6c0.1-0.3,0.2-0.5,0.3-0.8c0.1-0.3,0.2-0.5,0.3-0.8
		c-1.4,3.1-3.3,7.3-4.9,10.4c-0.3,0.5-0.6,1-0.8,1.4c-0.2,0.4-0.4,0.6-0.4,0.6c-2.5,5.1-4.9,9.1-6.8,11.9c-0.2,0.2-0.5,0.7-0.8,1.4
		c-0.4,0.6-0.9,1.4-1.4,2.3c-0.1,0.2-0.3,0.4-0.4,0.7c-0.1,0.1-0.1,0.2-0.2,0.3c-0.1,0.1-0.1,0.2-0.2,0.3c-0.3,0.4-0.5,0.9-0.8,1.3
		c-2.5,4-5.2,7.9-8,11.8c-0.4,0.5-0.7,1-1.1,1.5c-0.4,0.5-0.7,1-1.1,1.5c-0.7,1-1.5,1.9-2.3,2.9c-1.6,1.9-3.2,3.6-5,5L58,65.4
		c-0.1,0.1-0.2,0.2-0.3,0.3l-0.3,0.3L57,66.2c-0.1,0.1-0.2,0.2-0.4,0.2l-0.4,0.2l-0.2,0.1L56,66.8l-0.1,0c-0.1,0.1-0.2,0.1-0.3,0.2
		c-0.9,0.5-1.9,0.8-2.7,0.8c-0.4,0-0.7-0.1-1-0.2c-0.3-0.1-0.6-0.3-0.8-0.6c-0.5-0.6-1-1.4-1.2-2.4c-0.3-1-0.4-2-0.5-3.1
		c-0.1-1.1,0-2.2,0-3.3c0-0.3,0-0.6,0.1-0.8c0-0.3,0.1-0.6,0.1-0.8c0.1-0.6,0.1-1.1,0.2-1.7c0.1-0.6,0.2-1.1,0.2-1.7
		c0.1-0.6,0.2-1.1,0.3-1.7c0.1-0.3,0.1-0.6,0.2-1c0.1-0.4,0.2-0.8,0.3-1.2c0.1-0.4,0.2-0.8,0.3-1.2c0-0.2,0.1-0.4,0.1-0.5
		c0-0.2,0.1-0.3,0.1-0.5c0.5-2.2,1.1-4.5,1.8-6.8c0.7-2.3,1.6-4.7,2.5-7c0.5-1.2,1-2.3,1.5-3.4c0.3-0.6,0.5-1.1,0.8-1.7
		c0.3-0.5,0.6-1.1,0.8-1.6c0.6-1,1.2-2,1.8-2.8c0.3-0.4,0.7-0.8,1-1.2c0.2-0.2,0.3-0.3,0.5-0.4c0.1-0.1,0.1-0.1,0.2-0.2
		c0,0,0.1,0,0.1-0.1l0,0l0,0c0,0,0,0,0,0c0,0,0,0,0.1-0.1c0,0,0.1,0,0.1,0c0,0,0,0,0,0c0,0,0,0,0,0c0,0,0.1,0.1,0.1,0.1
		c0,0,0.1,0.1,0.1,0.1c0.2,0.2,0.3,0.4,0.5,0.6c0.1,0.2,0.3,0.4,0.4,0.6c0.2,0.4,0.4,0.8,0.5,1c0.1,0.2,0.2,0.4,0.2,0.4
		c0.1,0.2,0.1,0.5,0.2,0.7c0.1,0.2,0.1,0.4,0.2,0.5c0,0.1,0.1,0.2,0.1,0.2c0,0,0-0.1,0.1-0.1c0-0.1,0-0.2,0-0.3c0-0.1,0-0.2,0-0.4
		c0-0.1,0-0.3,0-0.4c0-0.3-0.1-0.6-0.1-0.9c-0.1-0.6-0.3-1.3-0.6-1.8c-0.1-0.3-0.3-0.6-0.4-0.8c0-0.1-0.1-0.1-0.1-0.2
		c0,0,0-0.1-0.1-0.1c0,0,0,0-0.1-0.1c-0.1-0.1-0.1-0.1-0.2-0.2c-0.1-0.1-0.3-0.2-0.4-0.3c-0.1-0.1-0.2-0.1-0.3-0.1c0,0-0.1,0-0.1,0
		c0,0-0.1,0-0.1,0c0,0-0.1,0-0.1,0c0,0,0,0,0.1,0c0,0,0,0,0.1,0c0,0,0.1,0,0.1,0c0.1,0,0.3,0,0.5,0.1c0.2,0.1,0.4,0.2,0.5,0.4
		c0,0,0,0,0,0c0,0,0.1,0,0.1,0c0,0,0.1,0,0.1,0.1c0.1,0,0.1,0.1,0.2,0.1c0.2,0.2,0.5,0.5,0.8,0.9c0.3,0.4,0.5,0.9,0.7,1.3
		c0.2,0.4,0.3,0.9,0.3,1.1c0,0.1,0.1,0.4,0.1,0.7c0,0.3,0.1,0.7,0.1,1.1c0.1,0.8,0.1,1.8,0.1,2.8c0,1,0,2,0,2.8
		c0,0.8,0.1,1.5,0.1,1.7c0.1,0.9,0.1,0.9,0.2,0.3c0-0.1,0-0.3,0.1-0.5c0-0.1,0-0.2,0-0.3c0-0.1,0-0.2,0.1-0.4
		c0.1-0.5,0.2-1.1,0.3-1.8c0.2-1.3,0.5-3,0.6-4.6c0-0.2,0-0.4,0-0.6c0-0.2,0-0.4,0-0.6c0-0.4-0.1-0.8-0.1-1.2
		c-0.1-0.8-0.3-1.5-0.5-2.2c-0.2-0.6-0.4-1-0.4-1.1c0-0.1,0-0.1,0.2,0.1c0.1,0.1,0.1,0.2,0.2,0.3c0.1,0.1,0.1,0.2,0.2,0.3
		c0.1,0.2,0.2,0.3,0.3,0.3c-0.2-0.5-0.4-0.9-0.7-1.3c-0.1-0.1-0.1-0.2-0.2-0.3c-0.1-0.1-0.1-0.2-0.2-0.3c-0.1-0.1-0.1-0.2-0.2-0.3
		c0,0-0.1-0.1-0.1-0.1c0,0-0.1-0.1-0.1-0.1c-0.4-0.4-0.8-0.8-1.3-1.1c-0.5-0.3-1.1-0.5-1.7-0.5c-0.1,0-0.2,0-0.3,0
		c-0.1,0-0.2,0-0.3,0c-0.1,0-0.2,0-0.3,0c-0.1,0-0.2,0-0.3,0.1c-0.4,0.1-0.9,0.3-1.3,0.6c0,0,0,0,0,0c0,0-0.1,0-0.1,0
		c0,0-0.1,0-0.1,0.1c0,0-0.1,0.1-0.2,0.1c-0.2,0.2-0.5,0.4-0.9,0.7c-0.2,0.1-0.3,0.3-0.5,0.5c0,0-0.1,0.1-0.1,0.1
		c0,0-0.1,0.1-0.1,0.1c-0.1,0.1-0.2,0.2-0.3,0.3c-0.4,0.4-0.7,0.8-1.1,1.3c-0.7,0.9,3.3-6.5-2,3.1s-12.7,29.5-9.3,41.3
		c0.2,0.7,0.4,1.4,0.8,2.2c0.3,0.5,0.6,1,0.9,1.6c0.9,1,0.8,0.9,2,1.9c0.3,0.2,0.6,0.4,0.9,0.5c0.5,0.2,1,0.4,1.5,0.5
		c0.5,0.1,1,0.1,1.5,0.1c1,0,1.9-0.2,2.7-0.4c0.8-0.3,1.6-0.6,2.3-1c0.2-0.1,0.4-0.2,0.5-0.3l0.5-0.3c0.2-0.1,0.3-0.2,0.5-0.3
		l0.5-0.3c0.3-0.2,0.6-0.4,0.9-0.7l0.4-0.4c0.1-0.1,0.3-0.2,0.4-0.4C70,61.5,77.9,46,77.9,46l1.8-3c0.2-0.2,0.3-0.5,0.4-0.8l0.4-0.8
		l0.9-1.5c2.3-4,4.5-8.1,6.7-12.2l0.8-1.5l0.4-0.8c0.1-0.3,0.3-0.5,0.4-0.8l1.5-3.1l1.5-3.1l0.4-0.8l0.4-0.8l0.7-1.6
		C96.2,11,98,6.8,99.8,2.5C98.9,4.6,98,6.5,97.2,8.3z"/>
	<path id="R" class="st0" d="M46.2,72.1c0,0,0-0.1-0.1-0.1c-0.1-0.1-0.3-0.2-0.7-0.3c-0.3-0.1-0.6-0.2-1-0.4c-0.3-0.1-0.7-0.3-1-0.4
		c-0.2-0.1-0.3-0.1-0.5-0.2l-0.5-0.2c-0.3-0.1-0.7-0.3-1-0.4c-0.7-0.3-1.3-0.6-1.9-0.8c-0.6-0.3-1.2-0.6-1.8-0.8
		c-0.3-0.1-0.6-0.3-0.9-0.4c-0.3-0.1-0.6-0.3-0.8-0.4c-0.3-0.1-0.5-0.3-0.8-0.4c-0.1-0.1-0.3-0.1-0.4-0.2c-0.1-0.1-0.2-0.1-0.4-0.2
		c-0.2-0.1-0.5-0.3-0.7-0.4c-0.2-0.1-0.4-0.2-0.6-0.4c-0.4-0.2-0.7-0.5-1-0.7c-0.4-0.3-0.8-0.6-1.3-1.1c-0.3-0.2-0.6-0.5-1-0.9
		c-0.2-0.2-0.4-0.4-0.6-0.6c-0.2-0.2-0.4-0.5-0.7-0.8c0.6,0.9,1.4,1.6,2.1,2.2c0,0,1.6,1.1,1.6,1.1c-0.4-0.3-2.3-1.9-2.6-2.3
		c-0.4-0.4-0.4-1.6-0.4-1.6c0.2,0.7,0.9,1.1,1.3,1.5c1.1,0.9,1.6,1.3,7.3,4.3c-0.2-0.2-1.7-1.1-3.1-1.9c0.1,0,0.1,0.1,0.2,0.1
		c0.3,0.1,0.5,0.3,0.8,0.4c0.3,0.1,0.6,0.3,0.8,0.4l0.4,0.2c0.1,0.1,0.3,0.1,0.4,0.2c0.3,0.1,0.6,0.3,0.8,0.4
		c0.3,0.1,3.9,1.7,5.7,2.4c0.7,0.3,1.5,0.6,2.2,0.8c2.2,0.7,6,1.6,6,1.5c0.1-0.1-5.6-2.1-5.6-2.1c-0.9-0.3-1.9-0.7-2.8-1.1
		c-1.5-0.6-2.9-1.2-4.1-1.8c-0.4-0.2-0.8-0.4-1.1-0.6c-0.3-0.2-0.5-0.3-0.4-0.4c-0.3-0.1-0.5-0.2-0.7-0.4c-0.2-0.1-0.5-0.2-0.7-0.4
		c-0.2-0.1-0.5-0.2-0.7-0.4c-0.2-0.1-0.4-0.2-0.7-0.4c-0.2-0.1-0.4-0.2-0.6-0.4c-0.2-0.1-0.4-0.2-0.6-0.4c-0.4-0.2-0.8-0.5-1.1-0.7
		c-0.7-0.5-1.2-1-1.7-1.5c-0.4-0.5-0.7-1-0.9-1.5c0-0.2-0.2-0.4-0.2-0.8c0,0,0-0.1,0-0.1c0,0,0-0.1,0-0.2c0-0.1,0-0.1,0-0.2
		c0-0.1,0-0.1,0-0.2c0-0.2,0-0.5,0.1-0.8c0.1-0.6,0.4-1.2,0.7-1.8c0.1-0.3,0.3-0.6,0.5-0.9c0.1-0.2,0.2-0.4,0.4-0.6
		c0.1-0.2,0.2-0.4,0.4-0.6l0.2-0.3l0.2-0.3l0.4-0.6l0.4-0.6l0.2-0.3l0.2-0.3l0.4-0.6l0.4-0.6l0.2-0.3l0.2-0.3l0.4-0.6
		c0.6-0.7,1.2-1.5,1.9-2.2c2.5-2.9,5.2-5.8,7.7-9l0.5-0.6l0.4-0.6l0.2-0.3l0.2-0.3l0.4-0.6c0.3-0.4,0.6-0.9,0.8-1.3
		c0.1-0.2,0.3-0.4,0.4-0.7c0.1-0.2,0.2-0.4,0.4-0.7c0.5-0.9,0.9-1.8,1.3-2.8c0.2-0.5,0.4-1,0.5-1.5c0.1-0.2,0.2-0.5,0.2-0.7l0.1-0.4
		c0-0.1,0.1-0.3,0.1-0.4c0.1-0.3,0.1-0.5,0.2-0.8c0-0.1,0-0.1,0-0.2c0-0.1,0-0.1,0-0.2c0-0.1,0-0.3,0.1-0.4c0.1-0.6,0.1-1.1,0.1-1.7
		c0-0.3,0-0.6-0.1-0.9c0-0.3-0.1-0.6-0.1-0.9c-0.1-0.3-0.1-0.6-0.3-0.9c-0.1-0.3-0.2-0.6-0.4-0.9c-0.1-0.2-0.2-0.3-0.3-0.5
		c-0.1-0.2-0.2-0.3-0.3-0.4c-0.2-0.3-0.5-0.6-0.8-0.8c-0.3-0.2-0.6-0.5-1-0.6c-0.1,0-0.2-0.1-0.3-0.1c-0.1,0-0.2-0.1-0.3-0.1
		l-0.3-0.1c-0.1,0-0.2-0.1-0.3-0.1c-0.7-0.2-1.4-0.2-2.1-0.2c-0.6,0-1.2,0.1-1.7,0.2c-0.5,0.1-1.3,0.3-2,0.5
		c-0.7,0.2-1.4,0.5-1.9,0.7c-0.9,0.4-1.8,0.9-2.7,1.3c-0.4,0.2-0.9,0.5-1.3,0.8c-0.4,0.3-0.9,0.5-1.3,0.8c-0.1,0.1-0.2,0.1-0.3,0.2
		c-0.1,0.1-0.2,0.1-0.3,0.2c-0.2,0.1-0.4,0.3-0.6,0.4c-0.2,0.1-0.4,0.3-0.7,0.4c-0.2,0.1-0.4,0.3-0.6,0.4c-0.4,0.3-0.9,0.6-1.3,0.9
		c-0.4,0.3-0.8,0.6-1.3,0.9l-0.3,0.2c-0.1,0.1-0.2,0.2-0.3,0.2c-0.2,0.2-0.4,0.3-0.6,0.5c-0.4,0.3-0.8,0.7-1.2,1
		c-0.4,0.3-0.8,0.7-1.2,1c-0.4,0.3-0.8,0.7-1.1,1c-0.2,0.2-0.4,0.3-0.6,0.5c-0.2,0.2-0.4,0.4-0.5,0.5c-0.2,0.2-0.4,0.4-0.5,0.5
		c-0.2,0.2-0.4,0.3-0.5,0.5c-0.7,0.7-1.3,1.4-2,2.1c-0.3,0.4-0.6,0.7-0.9,1c-0.3,0.3-0.5,0.7-0.7,1c-0.5,0.6-0.8,1.2-1.1,1.7
		c-0.2,0.3-0.3,0.5-0.4,0.7c-0.1,0.2-0.2,0.4-0.3,0.5c-0.1,0.3-0.2,0.5-0.2,0.5c-0.2,0.4-0.4,0.8-0.5,1.1c-0.1,0.2,0,0.3,0.3,0
		c0.3-0.4,0.7-0.9,1.1-1.4c0.4-0.5,0.9-1.1,1.4-1.6c0.9-1,1.7-1.9,1.8-1.8c0,0-0.1,0.2-0.3,0.5c-0.2,0.3-0.5,0.6-0.8,1
		c0,0,0,0.2-0.1,0.5c-0.1,0.3-0.3,0.6-0.5,0.9c-0.2,0.4-0.4,0.7-0.6,1.1c-0.2,0.3-0.4,0.6-0.5,0.8c-0.1,0.1-0.2,0.3-0.3,0.5
		c-0.1,0.2-0.3,0.4-0.4,0.7c-0.2,0.3-0.4,0.6-0.5,0.9c-0.1,0.2-0.2,0.3-0.3,0.5c-0.1,0.2-0.2,0.3-0.3,0.5c-0.8,1.4-1.5,2.8-1.7,3.2
		c-0.3,0.6-0.2,0.6,0.1,0.3c0.2-0.2,0.4-0.4,0.6-0.7c0.3-0.3,0.6-0.7,0.9-1.1c0.3-0.4,0.7-0.8,1.1-1.3c0-0.1,0.1-0.1,0.1-0.2
		c0-0.1,0.1-0.1,0.1-0.2c0.1-0.1,0.2-0.2,0.3-0.3c0.2-0.2,0.4-0.5,0.6-0.7c0.1-0.1,0.2-0.2,0.3-0.3c0.1-0.1,0.2-0.2,0.3-0.3
		c0.2-0.2,0.4-0.4,0.6-0.6c0.2-0.2,0.4-0.4,0.5-0.6c0.2-0.2,0.3-0.4,0.5-0.5c1.2-1.3,0.2,0.2,0.4,0.3c0.3-0.3,0.5-0.6,0.7-0.9
		c0.2-0.3,0.5-0.5,0.7-0.7c13.3-14.3,21.7-15.9,21.7-15.9c0.2-0.1,0.4-0.1,0.5-0.2c0.2,0,0.3-0.1,0.5-0.1c0.3-0.1,0.6-0.1,0.8-0.1
		c0.2,0,0.4,0,0.5,0.1c0.1,0,0.2,0.1,0.3,0.1c0.1,0.1,0.1,0.1,0.2,0.2c0.1,0.1,0.1,0.2,0.2,0.4c0.1,0.3,0.2,0.8,0.2,1.2
		c0,0.3,0,0.6-0.1,1c0,0.2-0.1,0.3-0.1,0.5c0,0,0,0.1,0,0.1l0,0.2c0,0.1-0.1,0.2-0.1,0.3c-0.1,0.4-0.2,0.8-0.4,1.2
		c0,0.1-0.1,0.2-0.1,0.3c0,0.1-0.1,0.2-0.1,0.3c0,0.1-0.1,0.2-0.1,0.3c0,0.1-0.1,0.2-0.1,0.3c-0.1,0.2-0.2,0.4-0.2,0.6
		c-0.1,0.2-0.2,0.4-0.3,0.6c-0.1,0.2-0.2,0.4-0.3,0.6c-0.1,0.2-0.2,0.4-0.3,0.6c-0.1,0.2-0.2,0.4-0.3,0.6c-0.1,0.2-0.2,0.4-0.4,0.6
		c-0.1,0.1-0.1,0.2-0.2,0.3l-0.2,0.3c-0.1,0.2-0.3,0.4-0.4,0.6c-2.1,3.3-4.9,6.4-7.5,9.5c-0.6,0.7-1.6,2.2-2.2,2.9
		c-0.6,0.7-0.7,0.9-0.8,1.1c-0.1,0.1-0.1,0.2-0.2,0.4c-0.1,0.2-0.3,0.4-0.6,0.8c-0.4,0.5-0.8,1.1-1.1,1.6c0.4-1.9,0.6-3.8,0.7-5.4
		c0-0.5,0-0.9,0-1.3c0-0.4-0.1-0.8-0.2-1.1c-0.1-0.3-0.1-0.5-0.2-0.7c0-0.1,0-0.1-0.1-0.2c0,0,0-0.1,0-0.1c-0.1-0.5-0.3-0.9-0.4-0.5
		c0,0.5-0.1,1.3-0.2,1.9c0,0.2,0,0.3-0.1,0.5c0,0.1-0.1,0.3-0.1,0.4c-0.1,0.2-0.1,0.4-0.2,0.4c-0.1,0,0-0.5,0-0.9
		c-0.1,0-0.3-0.4-0.4-0.8c-0.1-0.4-0.2-0.9-0.2-1.1c0-0.2-0.1-1-0.2-1.8c-0.1-0.8-0.2-1.6-0.3-1.8c0-0.3-0.1-0.3-0.2-0.1
		c-0.1,0.2-0.2,0.6-0.4,1.2c-0.1,0.3-0.1,0.5-0.2,0.8c-0.1,0.3-0.1,0.6-0.2,0.9c-0.1,0.3-0.1,0.6-0.2,0.9c-0.1,0.3-0.1,0.5-0.1,0.7
		c-0.2,0.9-0.3,0-0.5,0c0,0.2,0,0.4,0,0.6c0,0.2-0.2,1.1-0.2,1.6c0,0-1,6-1,6c0,0.2-1.1,6.6-9.2,24.2c-1.5,3.2-3.2,6.4-5,9.5
		c-1.8,3.1-3.6,6.2-5.4,9.3c1-1.5,1.8-2.6,2.6-4.2c0,0,0.1,0.1,0.4-0.3c0.7-1.1,1.4-2.4,2.1-3.5c0.6-1.1,1.2-2.1,1.7-2.6
		c0.3-0.4,0.6-0.7,1.3-1.8c-0.2,0.4-0.4,0.8-0.7,1.2c0.1,0,0.2,0.1,0.2,0.1c0.9-1.5,2.1-3.5,2.9-5c0,0,0.1,0.1,0.2,0.1
		c0.1-0.3,0.3-0.5,0.4-0.8c0.2-0.2,0.2,0,0.1,0.4c-0.1,0.4-0.4,0.9-0.7,1.5c-0.3,0.6-0.7,1.3-1,2c-0.4,0.7-0.7,1.3-1,1.8
		c0.1,0,0.2,0.1,0.2,0.1l0.4-0.8l0.1,0.1c-1,1.8-1.9,3.4-2.9,5.2c0,0,0,0,0-0.1c0,0,0.1,0.1,0.3-0.3c-0.9,1.6-2.1,3.5-2.9,5.1
		c-0.2,0.4,0.2,0.1,0.9-1c0.3-0.6,0.6-1.1,0.9-1.6c0.3-0.5,0.6-1,0.9-1.6l0.1,0.1c-0.5,0.8-1.2,1.9-1.6,2.7
		c-0.2,0.4,0.6-0.7,0.4-0.3c-0.2,0.4-0.5,0.8-0.6,1.2c0.7-1.2,1.5-2.7,2.3-3.9c0.3-0.4,0.6-0.7,0.7-0.7c1.1-2,2.1-3.5,3-4.5
		c0.2-0.3,0.9-1.4,1.4-2.5c0.9-1.6,1.9-3.3,2.7-5c0.9-1.7,1.8-3.5,2.6-5.3c0.8-1.8,1.6-3.6,2.4-5.4c0.4-0.9,0.7-1.7,1-2.6
		c0,0.1,0.1,0.2,0.1,0.3c0.2,0.6,0.5,1.1,0.9,1.6c0.7,0.9,1.5,1.7,2.3,2.3c0.8,0.6,1.7,1.2,2.5,1.6c0.2,0.1,0.4,0.2,0.6,0.3l0.6,0.3
		l0.6,0.3c0.2,0.1,0.4,0.2,0.6,0.3c6.6,3.4,13.5,5.9,20.7,7.6c-1.8-0.5-3.3-0.9-4.9-1.4C49.5,73.2,47.9,72.7,46.2,72.1z"/>
</g>
</svg>
