<svg class="loader_svg-logo" width="599" height="597" viewBox="0 0 599 597" fill="none" xmlns="http://www.w3.org/2000/svg">
<g clip-path="url(#clip0_1_2)">
<path class="loader_svg-stroke" d="M169.711 393.445L178.586 322.574C168.719 320.58 147.705 323.751 142.591 352.383C137.478 381.015 158.541 391.688 169.711 393.445Z" fill="black" stroke="black" stroke-width="7"/>
<path class="loader_svg-stroke" d="M424.334 296.933L336.454 285.547L429.603 314.478L424.334 296.933Z" fill="black" stroke="black" stroke-width="7"/>
<path class="loader_svg-stroke" d="M415.757 262.614L326.548 270.437L427.239 280.665L415.757 262.614Z" fill="black" stroke="black" stroke-width="7"/>
<path class="loader_svg-stroke" d="M222.123 123.489L359.604 85.3407L370.155 96.8362L381.171 82.2065L452.805 137.505L406.781 178.773L420.494 189.034L399.228 221.07C380.592 246.371 382.206 255.212 385.343 256.47L278.944 266.438L276.79 250.271C279.991 245.674 285.016 236.202 279.501 235.088C273.986 233.974 260.752 253.025 254.825 262.689L340.045 312.492C385.256 337.731 468.459 386.752 439.586 380.919C410.713 375.086 313.424 416.859 268.388 438.475L278.534 449.889L193.873 502.828C183.534 487.006 162.92 454.999 163.178 453.553C163.436 452.107 182.269 425.073 191.654 411.737C185.368 407.72 174.079 399.571 179.203 399.108C184.328 398.645 191.927 339.627 195.086 310.176L229.834 301.464L240.879 340.777L289.758 318.814C253.367 302.223 177.102 267.364 163.174 260.655C149.247 253.946 147.874 240.459 148.929 234.554L231.926 150.94L222.123 123.489Z" fill="black" stroke="black" stroke-width="7"/>
<path class="loader_svg-fill" d="M169.711 393.445L178.586 322.574C168.719 320.58 147.705 323.751 142.591 352.383C137.478 381.015 158.541 391.688 169.711 393.445Z" fill="black" stroke="black" stroke-width="7"/>
<path class="loader_svg-fill" d="M424.334 296.933L336.454 285.547L429.603 314.478L424.334 296.933Z" fill="black" stroke="black" stroke-width="7"/>
<path class="loader_svg-fill" d="M415.757 262.614L326.548 270.437L427.239 280.665L415.757 262.614Z" fill="black" stroke="black" stroke-width="7"/>
<path class="loader_svg-fill" d="M222.123 123.489L359.604 85.3407L370.155 96.8362L381.171 82.2065L452.805 137.505L406.781 178.773L420.494 189.034L399.228 221.07C380.592 246.371 382.206 255.212 385.343 256.47L278.944 266.438L276.79 250.271C279.991 245.674 285.016 236.202 279.501 235.088C273.986 233.974 260.752 253.025 254.825 262.689L340.045 312.492C385.256 337.731 468.459 386.752 439.586 380.919C410.713 375.086 313.424 416.859 268.388 438.475L278.534 449.889L193.873 502.828C183.534 487.006 162.92 454.999 163.178 453.553C163.436 452.107 182.269 425.073 191.654 411.737C185.368 407.72 174.079 399.571 179.203 399.108C184.328 398.645 191.927 339.627 195.086 310.176L229.834 301.464L240.879 340.777L289.758 318.814C253.367 302.223 177.102 267.364 163.174 260.655C149.247 253.946 147.874 240.459 148.929 234.554L231.926 150.94L222.123 123.489Z" fill="black" stroke="black" stroke-width="7"/>
</g>
<defs>
<clipPath id="clip0_1_2">
<rect width="511" height="509" fill="white" transform="translate(96.2759 0.589813) rotate(10.8119)"/>
</clipPath>
</defs>
</svg>
