<?xml version="1.0" encoding="utf-8"?>
<!-- Generator: Adobe Illustrator 22.0.0, SVG Export Plug-In . SVG Version: 6.00 Build 0)  -->
<svg version="1.1" id="Layer_1" xmlns="http://www.w3.org/2000/svg" xmlns:xlink="http://www.w3.org/1999/xlink" x="0px" y="0px"
	 viewBox="0 0 600 600" style="enable-background:new 0 0 600 600;" xml:space="preserve">
<style type="text/css">
	.st0{fill:none;stroke:#041525;stroke-width:5;stroke-miterlimit:10;}
	.st1{fill:#041525;stroke:#041525;stroke-width:5;stroke-miterlimit:10;}
</style>
<polygon class="st0" points="297.7,297.7 208.4,297.7 208.4,155.8 66.5,297.7 7,297.7 7,233.6 146.6,94 7,94 7,7 297.7,7 "/>
<polygon class="st0" points="302.3,298.3 391.6,298.3 391.6,440.2 533.5,298.3 593,298.3 593,362.4 453.4,502 593,502 593,589 
	302.3,589 "/>
<polygon class="st1" points="302.3,297.7 302.3,208.4 444.2,208.4 302.3,66.5 302.3,7 366.4,7 506,146.6 506,7 593,7 593,297.7 "/>
<polygon class="st1" points="297.7,298.3 297.7,387.6 155.8,387.6 297.7,529.5 297.7,589 233.6,589 94,449.4 94,589 7,589 7,298.3 
	"/>
</svg>
