<svg class="loader_svg-logo" width="240px" height="240px" viewBox="0 0 240 240" version="1.1" xmlns="//www.w3.org/2000/svg" xmlns:xlink="//www.w3.org/1999/xlink" xml:space="preserve">
                <g>
                    <path class="loader_svg-stroke" d="m109.8 178.8c0-0.1 0.1-0.2-0.2-0.3-0.2-0.2-0.7-0.4-1.8-0.8-0.8-0.3-1.5-0.6-2.3-0.9s-1.6-0.6-2.3-0.9c-0.4-0.2-0.8-0.3-1.2-0.5l-1.2-0.5c-0.8-0.3-1.6-0.6-2.4-1-1.6-0.7-3.1-1.3-4.6-2s-3-1.4-4.4-2c-0.7-0.3-1.4-0.7-2.1-1s-1.4-0.7-2-1-1.3-0.7-1.9-1c-0.3-0.2-0.6-0.3-0.9-0.5s-0.6-0.3-0.9-0.5c-0.6-0.3-1.1-0.6-1.6-0.9l-1.5-0.9c-0.9-0.6-1.8-1.1-2.5-1.6-0.9-0.7-1.8-1.4-3.2-2.5-0.7-0.6-1.4-1.3-2.4-2.2-0.5-0.4-0.9-1-1.5-1.5-0.5-0.6-1.1-1.2-1.6-2 1.5 2.1 3.3 3.8 5.1 5.2 0.1-0.1 3.8 2.7 3.8 2.7-0.9-0.7-5.4-4.6-6.3-5.5s-1-3.9-1-3.9c0.6 1.6 2.1 2.6 3.1 3.5 2.7 2.2 3.8 3.1 17.4 10.2-0.5-0.5-4.2-2.7-7.4-4.7 0.1 0.1 0.3 0.1 0.4 0.2 0.7 0.3 1.3 0.7 2 1s1.3 0.7 2 1l1 0.5c0.3 0.2 0.7 0.3 1 0.5 0.7 0.3 1.3 0.7 2 1s1.4 0.6 2 1c0.2 0.1 0.4 0.2 0.7 0.3 0.1-0.1 0.1-0.2-1.5-1 3.8 1.8 8.1 3.7 12.5 5.4 1.8 0.7 3.5 1.4 5.3 2 2.7 0.8 5.3 1.4 5.1 1.2-2.3-2.4-4-2.6-3.9-2.6-2.2-0.8-4.5-1.6-6.8-2.5-3.5-1.4-6.9-2.9-9.8-4.3-0.9-0.5-1.9-1-2.6-1.4s-1.1-0.8-1.1-0.9c-0.6-0.3-1.2-0.6-1.8-0.8-0.6-0.3-1.2-0.6-1.7-0.9-0.6-0.3-1.1-0.6-1.7-0.9-0.5-0.3-1.1-0.6-1.6-0.9s-1.1-0.6-1.5-0.9c-0.5-0.3-1-0.6-1.4-0.8-0.9-0.6-1.8-1.2-2.6-1.7-1.6-1.2-3-2.4-4-3.6s-1.7-2.4-2.1-3.5c-0.1-0.4-0.4-1.1-0.5-2 0-0.1 0-0.2-0.1-0.3v-0.4-0.4-0.4c0-0.6 0.1-1.2 0.2-1.9 0.3-1.3 0.9-2.9 1.7-4.4 0.4-0.7 0.7-1.3 1.2-2 0.3-0.5 12.6-17.1 14.1-18.8 6-7 12.5-13.9 18.3-21.5l1.1-1.4 1.1-1.5 0.5-0.7 0.5-0.8 1-1.5c0.7-1 1.3-2 1.9-3.1 0.3-0.5 0.6-1 0.9-1.6 0.3-0.5 0.6-1.1 0.9-1.6 1.2-2.2 2.2-4.4 3.1-6.7 0.5-1.1 0.9-2.3 1.3-3.5 0.2-0.6 0.4-1.2 0.5-1.8l0.3-0.9c0.1-0.3 0.2-0.6 0.2-0.9 0.1-0.6 0.3-1.2 0.4-1.8 0-0.1 0.1-0.3 0.1-0.5s0.1-0.3 0.1-0.5c0.1-0.3 0.1-0.7 0.2-1 0.2-1.4 0.3-2.7 0.3-4.1 0-0.7-0.1-1.4-0.1-2.1-0.1-0.7-0.2-1.4-0.3-2.2-0.2-0.7-0.4-1.5-0.6-2.2-0.3-0.7-0.6-1.5-1-2.2-0.2-0.4-0.4-0.7-0.6-1.1s-0.5-0.7-0.8-1.1c-0.5-0.7-1.2-1.4-1.9-1.9-0.7-0.6-1.5-1.1-2.3-1.5l-0.6-0.3-0.6-0.3-0.6-0.2c-0.2-0.1-0.4-0.1-0.6-0.2-1.7-0.5-3.4-0.6-4.9-0.5s-2.9 0.3-4.1 0.6c-1.2 0.2-3 0.6-4.8 1.2-1.8 0.5-3.4 1.2-4.5 1.6-2.2 1-4.3 2.1-6.4 3.2-1 0.6-2.1 1.2-3.1 1.8s-2.1 1.3-3.1 1.9c-0.3 0.2-0.5 0.3-0.8 0.5s-0.5 0.3-0.8 0.5c-0.5 0.3-1 0.7-1.5 1s-1 0.7-1.6 1c-0.5 0.4-1 0.7-1.5 1.1-1 0.7-2 1.4-3.1 2.2-1 0.8-2 1.5-3 2.3l-0.8 0.6c-0.2 0.2-0.5 0.4-0.7 0.6l-1.5 1.2c-1 0.8-2 1.6-2.9 2.4s-1.9 1.6-2.8 2.4-1.8 1.7-2.7 2.5c-0.4 0.4-0.9 0.8-1.3 1.2l-1.3 1.3c-0.4 0.4-0.9 0.8-1.3 1.3-0.4 0.4-0.9 0.8-1.3 1.3-1.6 1.7-3.2 3.4-4.7 5.1-0.7 0.8-1.4 1.7-2.1 2.5-0.6 0.8-1.2 1.6-1.8 2.4-1.1 1.5-2 3-2.7 4.2-0.4 0.6-0.7 1.2-0.9 1.6-0.3 0.5-0.5 0.9-0.6 1.3-0.3 0.7-0.5 1.1-0.5 1.1-0.6 1-1.1 2-1.2 2.5-0.1 0.6 0 0.7 0.8-0.1 0.7-0.9 1.6-2 2.6-3.3s2.2-2.6 3.3-3.9c2.2-2.5 4.1-4.4 4.3-4.2 0.1 0-0.3 0.5-0.8 1.1s-1.2 1.5-1.9 2.3c0.1 0.1 0 0.5-0.3 1.1s-0.7 1.4-1.1 2.3c-0.5 0.8-1 1.7-1.5 2.5s-0.9 1.5-1.2 1.9c-0.1 0.2-0.4 0.6-0.7 1.1s-0.7 1.1-1.1 1.7c-0.4 0.7-0.8 1.4-1.3 2.2-0.2 0.4-0.5 0.8-0.7 1.2s-0.5 0.8-0.7 1.2c-1.9 3.3-3.6 6.7-4 7.6-0.7 1.4-0.6 1.5 0.2 0.8 0.4-0.4 0.9-1 1.5-1.7s1.4-1.6 2.2-2.6 1.7-2 2.6-3.1c0.1-0.1 0.2-0.3 0.3-0.4s0.2-0.3 0.4-0.4c0.2-0.3 0.5-0.5 0.7-0.8 0.5-0.6 0.9-1.1 1.4-1.7 0.2-0.3 0.5-0.5 0.7-0.8s0.5-0.5 0.7-0.8c0.5-0.5 0.9-1 1.4-1.5 0.4-0.5 0.9-1 1.2-1.4 0.4-0.4 0.8-0.9 1.1-1.3 2.9-3.1 0.5 0.4 0.9 0.7 0.6-0.8 1.2-1.5 1.8-2.2 0.6-0.6 1.1-1.2 1.6-1.8s1.1-1.1 1.6-1.8c0.6-0.6 1.2-1.3 1.9-2.1 0 0 0.2-0.1 0.4-0.4l1.1-1.1c0.9-0.9 2.2-2.1 3.5-3.5 0.7-0.7 1.5-1.4 2.2-2.1 0.4-0.4 0.8-0.7 1.1-1.1 0.4-0.3 0.8-0.7 1.2-1 0.8-0.7 1.5-1.4 2.2-2 12.7-10.6 19.2-15.7 27.5-19.7 0 0 7.2-3.6 13.5-4.2 0.5 0 0.9 0.1 1.1 0.2 0.3 0.1 0.5 0.2 0.6 0.3 0.2 0.1 0.3 0.3 0.5 0.6s0.3 0.6 0.5 1c0.3 0.8 0.4 1.9 0.5 3 0 0.8 0 1.6-0.2 2.4-0.1 0.4-0.1 0.8-0.2 1.2 0 0.1 0 0.2-0.1 0.3l-0.1 0.4c-0.1 0.2-0.1 0.5-0.2 0.7-1.3 5.9-4.4 11.3-4.6 11.8-0.3 0.5-0.5 1-0.8 1.5s-0.6 1-0.9 1.5c-0.1 0.2-0.3 0.5-0.4 0.7l-0.5 0.7c-0.3 0.5-0.6 1-0.9 1.5-5.1 7.8-11.7 15.4-18 22.8-1.4 1.6-2.6 3.5-1 2-1.4 1.6-9.9 13-10.8 14.3 0.9-4.5 1.4-9 1.8-13.1 0.1-1.1 0.1-2.2 0-3.1-0.1-1-0.2-1.8-0.4-2.5-0.1-0.7-0.3-1.3-0.4-1.7-0.1-0.2-0.1-0.3-0.1-0.4s-0.1-0.2-0.1-0.2c-0.2-1.1-0.7-2.3-1.1-1.2-0.1 1.1-0.3 3-0.5 4.7-0.1 0.4-0.1 0.8-0.2 1.2s-0.1 0.7-0.2 0.9c-0.1 0.5-0.3 0.9-0.4 0.9s0-1.1 0.1-2.2c-0.3 0-0.6-0.9-0.9-1.9s-0.5-2.1-0.4-2.6c-0.1-0.6-0.3-2.5-0.5-4.3-0.3-1.9-0.5-3.8-0.7-4.3-0.1-0.8-0.3-0.8-0.6-0.3-0.2 0.5-0.6 1.6-0.9 2.8-0.2 0.6-0.3 1.3-0.5 2s-0.3 1.4-0.5 2.1-0.3 1.4-0.4 2.1c-0.1 0.6-0.3 1.2-0.4 1.8-0.4 2.1-0.7-0.1-1.1-0.1 0 0.5 0 1-0.1 1.4 0 0.4-0.1 0.8-0.2 1.2-0.2 0.8-0.3 1.5-0.3 2.6 0 0-0.1 0.4-0.2 1s-0.3 1.5-0.4 2.5c-0.3 1.9-0.7 4.2-1 5.8 0 0 0 0.3-0.1 0.9s-0.3 1.7-0.6 3.2c-0.2 1-0.4 2.3-0.6 3.1s-0.4 1.5-0.5 2c-0.1 0-0.1 0-0.3-0.1-0.1 1-0.6 4.2-1.5 6.1-0.1 0-0.1 0-0.3-0.1-6.5 21.7-8.3 26.7-19.2 48-3.6 7.7-7.7 15.3-12 22.7s-8.7 14.8-12.9 22.3c2.3-3.6 4.2-6.3 6.2-10.1 0.1 0.1 0.4 0.2 0.9-0.7 1.7-2.7 3.4-5.8 5-8.5 1.5-2.7 2.9-5 4-6.2 0.6-0.9 1.5-1.6 3.1-4.4-0.5 0.9-2.3 4.5-2.3 4.5 2.2-3.7 6-9.8 8.1-13.6l0.4 0.2c0.3-0.6 0.7-1.3 1-1.9 0.5-0.4 0.5 0 0.2 0.9-0.3 0.8-0.9 2.2-1.7 3.7-0.7 1.5-1.6 3.2-2.5 4.8s-4 7-4.6 8.2c0.1 0.1 3.8-5.5 3.8-5.5s-4.4 8.4-6.7 12.5c0-0.1 0.3 0 0.9-1-2.1 3.7-5 8.3-6.9 12.2-0.4 1 0.5 0.3 2.2-2.4 0.8-1.4 1.5-2.6 2.2-3.7 0.7-1.2 3-4.6 3-4.6-1.1 1.9-3.4 5.6-4.4 7.5-0.4 1 3.2-4.4 4.9-7.1 0.7-0.9 1.3-1.7 1.6-1.6 2.6-4.8 9.3-14.3 10.7-16.9 2.2-3.9 4.4-7.8 6.5-11.9 2.2-4.2 4.2-8.5 6.2-12.7 2-4.3 3.9-8.6 5.7-12.8 0.9-2.1 1.7-4.1 2.5-6.1 0.1 0.3 0.2 0.5 0.3 0.8 0.5 1.4 1.3 2.7 2.1 3.8 1.6 2.3 3.5 4 5.5 5.6 1.9 1.5 4 2.8 6 3.9 0.5 0.3 1 0.6 1.5 0.8l1.5 0.8 1.5 0.8c0.5 0.3 1 0.5 1.5 0.8 15.7 8 32.3 14.2 49.5 18.1-4.3-1.1-7.9-2.2-11.6-3.4-3.6-1.9-7.3-3.2-11.4-4.6z">
                    </path>
                    <path class="loader_svg-stroke" d="m231.6 25.9c-1 2.2-2 4.4-3.1 6.7-1 2.3-2.1 4.7-3.2 7.2-0.1-0.1-0.4-0.2-1.5 2.3l-2.7 5.7c-0.9 1.9-1.9 3.9-2.8 5.8-0.5 1-0.9 1.9-1.4 2.9s-0.9 1.9-1.4 2.8c-0.9 1.9-1.8 3.7-2.7 5.5s-1.8 3.5-2.6 5.1-1.6 3.2-2.4 4.6c-1.6 2.9-2.9 5.3-4 7-0.2 0.3-0.4 0.6-0.5 0.9l-0.6 0.9c-0.4 0.7-0.9 1.4-1.4 2.3s-1.2 1.9-1.9 3.2c-0.4 0.6-0.8 1.3-1.2 2.1s-0.9 1.6-1.4 2.5l1-1.8 0.5-0.9 0.5-0.9c0.7-1.2 1.3-2.4 2-3.7-0.1-0.1-0.4-0.2-0.4-0.2-0.7 1.2-1.4 2.5-2.1 3.7-0.4 0.6-0.7 1.3-1.1 1.9s-0.7 1.3-1.1 2c-1.5 2.6-3.1 5.3-4.7 8s-3.2 5.4-4.8 7.9c-0.8 1.3-1.6 2.6-2.4 3.8l-1.2 1.8-1.2 1.8s-0.2-0.1-0.3-0.2l-3 4.7c-0.9 1-0.6 0.2 0.5-1.8s3.1-5.2 5.2-8.9c0.6-0.9 1.1-1.9 1.7-2.9 0.3-0.5 0.6-1 0.9-1.5s0.6-1 0.9-1.5c1.2-2 2.4-4.1 3.6-6.2 0.3-0.5 0.6-1 0.9-1.5s0.6-1 0.8-1.5c0.6-1 1.1-2 1.6-2.9l1.5-2.7c0.5-0.9 0.9-1.7 1.3-2.4-0.1-0.1-0.4-0.2-0.5-0.3-0.4 0.8-0.9 1.6-1.3 2.4l-1.4 2.4-0.2-0.1 1.5-2.7c0.5-0.9 1-1.8 1.4-2.7 1-1.8 1.9-3.5 2.8-5.2l2.7-5.1c0.4-0.8 0.9-1.7 1.3-2.5s0.9-1.7 1.3-2.5c0.9-1.7 1.7-3.4 2.6-5.1 0.4-0.9 0.9-1.7 1.3-2.6s0.8-1.7 1.3-2.6c0.1-0.3 0.3-0.6 0.4-0.8-0.1-0.1-0.2-0.1-1.1 1.5 4.9-9.7 10.6-21.8 14.8-31.7 1-2.6-0.5-0.2-4 7.2-3.5 7.5-5.8 12.5-9.4 19.9l-0.2-0.1c1.2-2.5 2.7-5.6 4.2-8.7s2.9-6.2 4-8.8c1-2.6-2.7 4.8-1.7 2.3 0.6-1.3 1.2-2.5 1.7-3.8 0.3-0.6 0.6-1.3 0.8-1.9 0.3-0.6 0.5-1.3 0.8-1.9-3.4 7.5-8 17.6-11.8 24.9-0.7 1.2-1.3 2.4-1.9 3.3-0.5 0.9-0.9 1.4-1.1 1.4-6 12.3-11.7 21.8-16.3 28.6-0.4 0.6-1.1 1.7-2 3.3-0.9 1.5-2.1 3.5-3.3 5.5-0.3 0.5-0.6 1-0.9 1.6-0.2 0.3-0.3 0.5-0.5 0.8s-0.3 0.5-0.5 0.8c-0.6 1-1.2 2.1-1.9 3.1-6 9.5-12.3 19.1-19.1 28.3-0.9 1.2-1.8 2.4-2.6 3.6-0.9 1.2-1.7 2.4-2.6 3.6-1.8 2.3-3.6 4.6-5.5 6.9-3.7 4.4-7.6 8.6-11.9 12.1l-0.8 0.6c-0.3 0.2-0.5 0.4-0.8 0.6l-0.8 0.6-0.8 0.6c-0.3 0.2-0.6 0.4-0.8 0.6l-0.9 0.5-0.4 0.3-0.2 0.1-0.2 0.1c-0.3 0.2-0.5 0.3-0.8 0.4-2.2 1.1-4.5 1.8-6.4 1.8-0.9 0-1.8-0.2-2.5-0.5s-1.4-0.8-2-1.4c-1.3-1.3-2.3-3.3-2.9-5.7-0.7-2.3-1-4.9-1.1-7.5s-0.1-5.3 0.1-8c0-0.7 0.1-1.3 0.2-2s0.1-1.3 0.2-2c0.2-1.4 0.3-2.7 0.5-4.1s0.4-2.7 0.6-4 0.4-2.7 0.7-4c0.1-0.7 0.3-1.5 0.5-2.4s0.4-1.9 0.6-2.9 0.5-2 0.7-2.9c0.1-0.4 0.2-0.9 0.3-1.3s0.2-0.8 0.3-1.1c1.2-5.2 2.6-10.7 4.3-16.3s3.7-11.3 6-16.8c1.1-2.8 2.3-5.5 3.6-8.2 0.6-1.3 1.3-2.7 1.9-4 0.7-1.3 1.3-2.6 2-3.8 1.4-2.5 2.8-4.8 4.3-6.8 0.8-1 1.6-2 2.3-2.8 0.4-0.4 0.7-0.8 1.1-1.1 0.2-0.2 0.3-0.3 0.5-0.4l0.2-0.2 0.1-0.1s0.1-0.1 0.2-0.1 0.2-0.1 0.3-0.1h0.1 0.1c0.1 0.1 0.2 0.2 0.3 0.2l0.3 0.3c0.4 0.4 0.8 0.9 1.1 1.4s0.6 1 0.9 1.5c0.5 1 0.9 1.8 1.1 2.4s0.4 0.9 0.4 0.9c0.2 0.6 0.3 1.1 0.4 1.6s0.3 1 0.4 1.3 0.2 0.5 0.3 0.4c0 0 0.1-0.1 0.1-0.3s0.1-0.4 0.1-0.7v-0.9c0-0.3 0-0.6-0.1-0.9l-0.3-2.1c-0.3-1.5-0.8-3.1-1.4-4.4-0.3-0.7-0.7-1.3-1-1.9-0.1-0.1-0.2-0.3-0.3-0.4 0-0.1-0.1-0.1-0.1-0.2s-0.1-0.1-0.1-0.2c-0.1-0.2-0.3-0.3-0.4-0.5-0.3-0.3-0.6-0.5-0.9-0.6s-0.6-0.2-0.8-0.3h-0.2-0.2c-0.1 0-0.1-0.1-0.1-0.1s0-0.1 0.1-0.1h0.2 0.2c0.3 0 0.8 0.1 1.2 0.3 0.5 0.2 0.9 0.6 1.3 1h0.1c0.1 0 0.1 0 0.2 0.1 0.1 0 0.2 0.1 0.3 0.2s0.2 0.2 0.4 0.3c0.6 0.4 1.3 1.2 1.9 2.2s1.2 2.1 1.6 3.1c0.4 1.1 0.7 2 0.8 2.7 0.1 0.3 0.2 0.9 0.3 1.6s0.2 1.6 0.3 2.6c0.2 2 0.2 4.4 0.2 6.8s-0.1 4.8 0 6.8c0 2 0.1 3.5 0.2 4.2 0.1 2.1 0.3 2.1 0.6 0.7 0.1-0.3 0.1-0.8 0.2-1.2 0-0.2 0.1-0.5 0.1-0.8s0.1-0.6 0.1-0.9c0.2-1.2 0.4-2.7 0.7-4.3 0.5-3.2 1.2-7.1 1.4-11.1v-1.5-1.5c0-1-0.1-2-0.3-3-0.3-1.9-0.7-3.7-1.3-5.2-0.5-1.5-0.9-2.3-1-2.6s0.1-0.2 0.4 0.2c0.1 0.2 0.3 0.4 0.5 0.6s0.3 0.5 0.5 0.7c0.3 0.4 0.6 0.8 0.7 0.8-0.5-1.2-1-2.2-1.6-3.2-0.1-0.2-0.3-0.5-0.5-0.7s-0.3-0.5-0.5-0.7-0.3-0.5-0.5-0.7l-0.3-0.3-0.3-0.3c-0.9-1-2-1.9-3.2-2.6s-2.6-1.1-4.1-1.2h-0.7-0.8c-0.3 0-0.5 0.1-0.8 0.1s-0.5 0.1-0.8 0.2c-1.1 0.3-2.1 0.7-3.2 1.4h-0.1c-0.1 0-0.1 0.1-0.2 0.1s-0.2 0.1-0.3 0.2-0.2 0.1-0.4 0.2c-0.6 0.4-1.3 0.9-2.1 1.6-0.4 0.4-0.8 0.7-1.2 1.2l-0.3 0.3-0.3 0.3c-0.2 0.2-0.4 0.4-0.6 0.7-0.8 0.9-1.7 2-2.6 3.1-1.7 2.3-3.4 4.9-4.8 7.3-1.4 2.5-2.7 4.9-3.6 6.8 0 0-0.3 0.7-1 2.3-0.1 0.2-0.2 0.4-0.3 0.7-0.1 0.2-0.2 0.5-0.3 0.8-0.2 0.5-0.5 1.1-0.8 1.8-0.6 1.3-1.3 3-2.1 4.9-0.3 0.7-0.5 1.2-0.6 1.5-0.1 0.4-0.2 0.6-0.2 0.8-0.1 0.3 0 0.4 0 0.4-0.1-0.1-0.1-0.1-0.3-0.1-0.8 2.7-2.9 8-3.7 10.7-0.1 0-0.1 0-0.3-0.1-1.5 5.5-3.3 10.8-4.4 16.4-0.1 0-0.1 0-0.3-0.1-0.2 0.7-0.3 1.4-0.5 2-0.1 0.6-0.3 1.3-0.4 1.8-0.2 1-0.4 1.7-0.5 1.7s-0.1 0-0.3-0.1c-0.1 0.3-0.2 0.7-0.3 1.1s-0.2 0.9-0.3 1.3c-0.2 0.9-0.3 1.9-0.5 2.7-0.1 0.4-0.1 0.9-0.2 1.2-0.1 0.4-0.1 0.7-0.2 1-0.1 0.6-0.2 0.9-0.3 0.9h0.3l-0.3 2.1c-0.1 0.7-0.2 1.3-0.3 2s-0.2 1.3-0.3 2c0 0.3-0.1 0.6-0.1 1 0 0.3-0.1 0.6-0.1 0.9-0.2 1.3-0.3 2.5-0.5 3.7-0.1 1.2-0.3 2.4-0.4 3.5-0.1 0.6-0.1 1.1-0.2 1.7s-0.1 1.2-0.2 1.7c-0.1 1.1-0.2 2.3-0.2 3.4-0.1 2.3-0.1 4.5 0 6.8 0.1 3 0.4 6.2 1.3 9.6 0.4 1.7 1 3.4 1.9 5.2 0.6 1.2 1.3 2.5 2.2 3.7 2.1 2.3 2 2.3 4.7 4.5 0.7 0.4 1.4 0.9 2.2 1.2 1.1 0.5 2.3 0.9 3.5 1.1s2.4 0.3 3.5 0.3c2.3 0 4.5-0.4 6.4-1.1 2-0.6 3.8-1.4 5.5-2.4 0.4-0.2 0.8-0.5 1.2-0.7l1.2-0.7c0.4-0.2 0.8-0.5 1.1-0.7l1.1-0.8c0.7-0.5 1.4-1.1 2.2-1.6l1-0.8c0.3-0.3 0.7-0.6 1-0.9 2.7-2.3 5.1-4.8 7.4-7.3s4.4-5.1 6.4-7.7l3-3.9c1-1.3 1.9-2.6 2.8-3.9 1.6-2.3 3.1-4.7 1.2-2.6 0.8-1.1 1.6-2.3 2.5-3.4 0.4-0.6 0.8-1.1 1.2-1.7s0.8-1.1 1.2-1.7c1.6-2.3 1.9-2.9 2.2-3.6 0.2-0.3 0.3-0.6 0.6-1.2 0.3-0.5 0.8-1.3 1.5-2.4l2.3-3.5c0.8-1.2 1.5-2.3 2.2-3.5l4.4-7.1 4.3-7.2c0.4-0.6 0.7-1.2 1.1-1.8l1-1.8 2.1-3.6c5.5-9.7 10.8-19.4 15.9-29.3l1.9-3.7 0.9-1.9c0.3-0.6 0.6-1.2 0.9-1.9l3.7-7.5 3.9-6.7 0.9-1.9 0.9-1.9 1.7-3.8c4.6-10.1 9.1-20.2 13.3-30.5-2.2 5.2-4.2 9.6-6.2 14z">
                    </path>
                    <path class="loader_svg-stroke" d="m216.5 100.7l-3.7-6.4-5.6 8 1.6 2.9c1.9 3.2 1.9 9.1 0 12.3l-43.8 75.9c-1.9 3.2-6.9 6.2-10.7 6.2h-87.5c-3.2 0-7.4-2.2-9.7-4.8l-6.1 6.1c4 3.6 10.8 7.5 15.8 7.5h87.6c6.9 0 14.9-4.6 18.3-10.6l43.8-75.9c3.4-5.9 3.4-15.2 0-21.2z">
                    </path>
                    <path class="loader_svg-stroke" d="m33.2 171.1l6-7.2-26.9-46.4c-1.9-3.2-1.9-9.1 0-12.3l43.8-75.9c1.9-3.2 6.9-6.2 10.7-6.2h87.6c3.7 0 8.8 2.9 10.7 6.2l23.8 41.3 5.3-8.6-21.4-37.1c-3.4-5.9-11.5-10.6-18.3-10.6h-87.7c-6.9 0-14.9 4.6-18.3 10.6l-43.8 75.8c-3.4 5.9-3.4 15.2 0 21.2l28.5 49.2z">
                    </path>
                </g>
                <g>
                    <path class="loader_svg-fill" d="m109.8 178.8c0-0.1 0.1-0.2-0.2-0.3-0.2-0.2-0.7-0.4-1.8-0.8-0.8-0.3-1.5-0.6-2.3-0.9s-1.6-0.6-2.3-0.9c-0.4-0.2-0.8-0.3-1.2-0.5l-1.2-0.5c-0.8-0.3-1.6-0.6-2.4-1-1.6-0.7-3.1-1.3-4.6-2s-3-1.4-4.4-2c-0.7-0.3-1.4-0.7-2.1-1s-1.4-0.7-2-1-1.3-0.7-1.9-1c-0.3-0.2-0.6-0.3-0.9-0.5s-0.6-0.3-0.9-0.5c-0.6-0.3-1.1-0.6-1.6-0.9l-1.5-0.9c-0.9-0.6-1.8-1.1-2.5-1.6-0.9-0.7-1.8-1.4-3.2-2.5-0.7-0.6-1.4-1.3-2.4-2.2-0.5-0.4-0.9-1-1.5-1.5-0.5-0.6-1.1-1.2-1.6-2 1.5 2.1 3.3 3.8 5.1 5.2 0.1-0.1 3.8 2.7 3.8 2.7-0.9-0.7-5.4-4.6-6.3-5.5s-1-3.9-1-3.9c0.6 1.6 2.1 2.6 3.1 3.5 2.7 2.2 3.8 3.1 17.4 10.2-0.5-0.5-4.2-2.7-7.4-4.7 0.1 0.1 0.3 0.1 0.4 0.2 0.7 0.3 1.3 0.7 2 1s1.3 0.7 2 1l1 0.5c0.3 0.2 0.7 0.3 1 0.5 0.7 0.3 1.3 0.7 2 1s1.4 0.6 2 1c0.2 0.1 0.4 0.2 0.7 0.3 0.1-0.1 0.1-0.2-1.5-1 3.8 1.8 8.1 3.7 12.5 5.4 1.8 0.7 3.5 1.4 5.3 2 2.7 0.8 5.3 1.4 5.1 1.2-2.3-2.4-4-2.6-3.9-2.6-2.2-0.8-4.5-1.6-6.8-2.5-3.5-1.4-6.9-2.9-9.8-4.3-0.9-0.5-1.9-1-2.6-1.4s-1.1-0.8-1.1-0.9c-0.6-0.3-1.2-0.6-1.8-0.8-0.6-0.3-1.2-0.6-1.7-0.9-0.6-0.3-1.1-0.6-1.7-0.9-0.5-0.3-1.1-0.6-1.6-0.9s-1.1-0.6-1.5-0.9c-0.5-0.3-1-0.6-1.4-0.8-0.9-0.6-1.8-1.2-2.6-1.7-1.6-1.2-3-2.4-4-3.6s-1.7-2.4-2.1-3.5c-0.1-0.4-0.4-1.1-0.5-2 0-0.1 0-0.2-0.1-0.3v-0.4-0.4-0.4c0-0.6 0.1-1.2 0.2-1.9 0.3-1.3 0.9-2.9 1.7-4.4 0.4-0.7 0.7-1.3 1.2-2 0.3-0.5 12.6-17.1 14.1-18.8 6-7 12.5-13.9 18.3-21.5l1.1-1.4 1.1-1.5 0.5-0.7 0.5-0.8 1-1.5c0.7-1 1.3-2 1.9-3.1 0.3-0.5 0.6-1 0.9-1.6 0.3-0.5 0.6-1.1 0.9-1.6 1.2-2.2 2.2-4.4 3.1-6.7 0.5-1.1 0.9-2.3 1.3-3.5 0.2-0.6 0.4-1.2 0.5-1.8l0.3-0.9c0.1-0.3 0.2-0.6 0.2-0.9 0.1-0.6 0.3-1.2 0.4-1.8 0-0.1 0.1-0.3 0.1-0.5s0.1-0.3 0.1-0.5c0.1-0.3 0.1-0.7 0.2-1 0.2-1.4 0.3-2.7 0.3-4.1 0-0.7-0.1-1.4-0.1-2.1-0.1-0.7-0.2-1.4-0.3-2.2-0.2-0.7-0.4-1.5-0.6-2.2-0.3-0.7-0.6-1.5-1-2.2-0.2-0.4-0.4-0.7-0.6-1.1s-0.5-0.7-0.8-1.1c-0.5-0.7-1.2-1.4-1.9-1.9-0.7-0.6-1.5-1.1-2.3-1.5l-0.6-0.3-0.6-0.3-0.6-0.2c-0.2-0.1-0.4-0.1-0.6-0.2-1.7-0.5-3.4-0.6-4.9-0.5s-2.9 0.3-4.1 0.6c-1.2 0.2-3 0.6-4.8 1.2-1.8 0.5-3.4 1.2-4.5 1.6-2.2 1-4.3 2.1-6.4 3.2-1 0.6-2.1 1.2-3.1 1.8s-2.1 1.3-3.1 1.9c-0.3 0.2-0.5 0.3-0.8 0.5s-0.5 0.3-0.8 0.5c-0.5 0.3-1 0.7-1.5 1s-1 0.7-1.6 1c-0.5 0.4-1 0.7-1.5 1.1-1 0.7-2 1.4-3.1 2.2-1 0.8-2 1.5-3 2.3l-0.8 0.6c-0.2 0.2-0.5 0.4-0.7 0.6l-1.5 1.2c-1 0.8-2 1.6-2.9 2.4s-1.9 1.6-2.8 2.4-1.8 1.7-2.7 2.5c-0.4 0.4-0.9 0.8-1.3 1.2l-1.3 1.3c-0.4 0.4-0.9 0.8-1.3 1.3-0.4 0.4-0.9 0.8-1.3 1.3-1.6 1.7-3.2 3.4-4.7 5.1-0.7 0.8-1.4 1.7-2.1 2.5-0.6 0.8-1.2 1.6-1.8 2.4-1.1 1.5-2 3-2.7 4.2-0.4 0.6-0.7 1.2-0.9 1.6-0.3 0.5-0.5 0.9-0.6 1.3-0.3 0.7-0.5 1.1-0.5 1.1-0.6 1-1.1 2-1.2 2.5-0.1 0.6 0 0.7 0.8-0.1 0.7-0.9 1.6-2 2.6-3.3s2.2-2.6 3.3-3.9c2.2-2.5 4.1-4.4 4.3-4.2 0.1 0-0.3 0.5-0.8 1.1s-1.2 1.5-1.9 2.3c0.1 0.1 0 0.5-0.3 1.1s-0.7 1.4-1.1 2.3c-0.5 0.8-1 1.7-1.5 2.5s-0.9 1.5-1.2 1.9c-0.1 0.2-0.4 0.6-0.7 1.1s-0.7 1.1-1.1 1.7c-0.4 0.7-0.8 1.4-1.3 2.2-0.2 0.4-0.5 0.8-0.7 1.2s-0.5 0.8-0.7 1.2c-1.9 3.3-3.6 6.7-4 7.6-0.7 1.4-0.6 1.5 0.2 0.8 0.4-0.4 0.9-1 1.5-1.7s1.4-1.6 2.2-2.6 1.7-2 2.6-3.1c0.1-0.1 0.2-0.3 0.3-0.4s0.2-0.3 0.4-0.4c0.2-0.3 0.5-0.5 0.7-0.8 0.5-0.6 0.9-1.1 1.4-1.7 0.2-0.3 0.5-0.5 0.7-0.8s0.5-0.5 0.7-0.8c0.5-0.5 0.9-1 1.4-1.5 0.4-0.5 0.9-1 1.2-1.4 0.4-0.4 0.8-0.9 1.1-1.3 2.9-3.1 0.5 0.4 0.9 0.7 0.6-0.8 1.2-1.5 1.8-2.2 0.6-0.6 1.1-1.2 1.6-1.8s1.1-1.1 1.6-1.8c0.6-0.6 1.2-1.3 1.9-2.1 0 0 0.2-0.1 0.4-0.4l1.1-1.1c0.9-0.9 2.2-2.1 3.5-3.5 0.7-0.7 1.5-1.4 2.2-2.1 0.4-0.4 0.8-0.7 1.1-1.1 0.4-0.3 0.8-0.7 1.2-1 0.8-0.7 1.5-1.4 2.2-2 12.7-10.6 19.2-15.7 27.5-19.7 0 0 7.2-3.6 13.5-4.2 0.5 0 0.9 0.1 1.1 0.2 0.3 0.1 0.5 0.2 0.6 0.3 0.2 0.1 0.3 0.3 0.5 0.6s0.3 0.6 0.5 1c0.3 0.8 0.4 1.9 0.5 3 0 0.8 0 1.6-0.2 2.4-0.1 0.4-0.1 0.8-0.2 1.2 0 0.1 0 0.2-0.1 0.3l-0.1 0.4c-0.1 0.2-0.1 0.5-0.2 0.7-1.3 5.9-4.4 11.3-4.6 11.8-0.3 0.5-0.5 1-0.8 1.5s-0.6 1-0.9 1.5c-0.1 0.2-0.3 0.5-0.4 0.7l-0.5 0.7c-0.3 0.5-0.6 1-0.9 1.5-5.1 7.8-11.7 15.4-18 22.8-1.4 1.6-2.6 3.5-1 2-1.4 1.6-9.9 13-10.8 14.3 0.9-4.5 1.4-9 1.8-13.1 0.1-1.1 0.1-2.2 0-3.1-0.1-1-0.2-1.8-0.4-2.5-0.1-0.7-0.3-1.3-0.4-1.7-0.1-0.2-0.1-0.3-0.1-0.4s-0.1-0.2-0.1-0.2c-0.2-1.1-0.7-2.3-1.1-1.2-0.1 1.1-0.3 3-0.5 4.7-0.1 0.4-0.1 0.8-0.2 1.2s-0.1 0.7-0.2 0.9c-0.1 0.5-0.3 0.9-0.4 0.9s0-1.1 0.1-2.2c-0.3 0-0.6-0.9-0.9-1.9s-0.5-2.1-0.4-2.6c-0.1-0.6-0.3-2.5-0.5-4.3-0.3-1.9-0.5-3.8-0.7-4.3-0.1-0.8-0.3-0.8-0.6-0.3-0.2 0.5-0.6 1.6-0.9 2.8-0.2 0.6-0.3 1.3-0.5 2s-0.3 1.4-0.5 2.1-0.3 1.4-0.4 2.1c-0.1 0.6-0.3 1.2-0.4 1.8-0.4 2.1-0.7-0.1-1.1-0.1 0 0.5 0 1-0.1 1.4 0 0.4-0.1 0.8-0.2 1.2-0.2 0.8-0.3 1.5-0.3 2.6 0 0-0.1 0.4-0.2 1s-0.3 1.5-0.4 2.5c-0.3 1.9-0.7 4.2-1 5.8 0 0 0 0.3-0.1 0.9s-0.3 1.7-0.6 3.2c-0.2 1-0.4 2.3-0.6 3.1s-0.4 1.5-0.5 2c-0.1 0-0.1 0-0.3-0.1-0.1 1-0.6 4.2-1.5 6.1-0.1 0-0.1 0-0.3-0.1-6.5 21.7-8.3 26.7-19.2 48-3.6 7.7-7.7 15.3-12 22.7s-8.7 14.8-12.9 22.3c2.3-3.6 4.2-6.3 6.2-10.1 0.1 0.1 0.4 0.2 0.9-0.7 1.7-2.7 3.4-5.8 5-8.5 1.5-2.7 2.9-5 4-6.2 0.6-0.9 1.5-1.6 3.1-4.4-0.5 0.9-2.3 4.5-2.3 4.5 2.2-3.7 6-9.8 8.1-13.6l0.4 0.2c0.3-0.6 0.7-1.3 1-1.9 0.5-0.4 0.5 0 0.2 0.9-0.3 0.8-0.9 2.2-1.7 3.7-0.7 1.5-1.6 3.2-2.5 4.8s-4 7-4.6 8.2c0.1 0.1 3.8-5.5 3.8-5.5s-4.4 8.4-6.7 12.5c0-0.1 0.3 0 0.9-1-2.1 3.7-5 8.3-6.9 12.2-0.4 1 0.5 0.3 2.2-2.4 0.8-1.4 1.5-2.6 2.2-3.7 0.7-1.2 3-4.6 3-4.6-1.1 1.9-3.4 5.6-4.4 7.5-0.4 1 3.2-4.4 4.9-7.1 0.7-0.9 1.3-1.7 1.6-1.6 2.6-4.8 9.3-14.3 10.7-16.9 2.2-3.9 4.4-7.8 6.5-11.9 2.2-4.2 4.2-8.5 6.2-12.7 2-4.3 3.9-8.6 5.7-12.8 0.9-2.1 1.7-4.1 2.5-6.1 0.1 0.3 0.2 0.5 0.3 0.8 0.5 1.4 1.3 2.7 2.1 3.8 1.6 2.3 3.5 4 5.5 5.6 1.9 1.5 4 2.8 6 3.9 0.5 0.3 1 0.6 1.5 0.8l1.5 0.8 1.5 0.8c0.5 0.3 1 0.5 1.5 0.8 15.7 8 32.3 14.2 49.5 18.1-4.3-1.1-7.9-2.2-11.6-3.4-3.6-1.9-7.3-3.2-11.4-4.6z">
                    </path>
                    <path class="loader_svg-fill" d="m231.6 25.9c-1 2.2-2 4.4-3.1 6.7-1 2.3-2.1 4.7-3.2 7.2-0.1-0.1-0.4-0.2-1.5 2.3l-2.7 5.7c-0.9 1.9-1.9 3.9-2.8 5.8-0.5 1-0.9 1.9-1.4 2.9s-0.9 1.9-1.4 2.8c-0.9 1.9-1.8 3.7-2.7 5.5s-1.8 3.5-2.6 5.1-1.6 3.2-2.4 4.6c-1.6 2.9-2.9 5.3-4 7-0.2 0.3-0.4 0.6-0.5 0.9l-0.6 0.9c-0.4 0.7-0.9 1.4-1.4 2.3s-1.2 1.9-1.9 3.2c-0.4 0.6-0.8 1.3-1.2 2.1s-0.9 1.6-1.4 2.5l1-1.8 0.5-0.9 0.5-0.9c0.7-1.2 1.3-2.4 2-3.7-0.1-0.1-0.4-0.2-0.4-0.2-0.7 1.2-1.4 2.5-2.1 3.7-0.4 0.6-0.7 1.3-1.1 1.9s-0.7 1.3-1.1 2c-1.5 2.6-3.1 5.3-4.7 8s-3.2 5.4-4.8 7.9c-0.8 1.3-1.6 2.6-2.4 3.8l-1.2 1.8-1.2 1.8s-0.2-0.1-0.3-0.2l-3 4.7c-0.9 1-0.6 0.2 0.5-1.8s3.1-5.2 5.2-8.9c0.6-0.9 1.1-1.9 1.7-2.9 0.3-0.5 0.6-1 0.9-1.5s0.6-1 0.9-1.5c1.2-2 2.4-4.1 3.6-6.2 0.3-0.5 0.6-1 0.9-1.5s0.6-1 0.8-1.5c0.6-1 1.1-2 1.6-2.9l1.5-2.7c0.5-0.9 0.9-1.7 1.3-2.4-0.1-0.1-0.4-0.2-0.5-0.3-0.4 0.8-0.9 1.6-1.3 2.4l-1.4 2.4-0.2-0.1 1.5-2.7c0.5-0.9 1-1.8 1.4-2.7 1-1.8 1.9-3.5 2.8-5.2l2.7-5.1c0.4-0.8 0.9-1.7 1.3-2.5s0.9-1.7 1.3-2.5c0.9-1.7 1.7-3.4 2.6-5.1 0.4-0.9 0.9-1.7 1.3-2.6s0.8-1.7 1.3-2.6c0.1-0.3 0.3-0.6 0.4-0.8-0.1-0.1-0.2-0.1-1.1 1.5 4.9-9.7 10.6-21.8 14.8-31.7 1-2.6-0.5-0.2-4 7.2-3.5 7.5-5.8 12.5-9.4 19.9l-0.2-0.1c1.2-2.5 2.7-5.6 4.2-8.7s2.9-6.2 4-8.8c1-2.6-2.7 4.8-1.7 2.3 0.6-1.3 1.2-2.5 1.7-3.8 0.3-0.6 0.6-1.3 0.8-1.9 0.3-0.6 0.5-1.3 0.8-1.9-3.4 7.5-8 17.6-11.8 24.9-0.7 1.2-1.3 2.4-1.9 3.3-0.5 0.9-0.9 1.4-1.1 1.4-6 12.3-11.7 21.8-16.3 28.6-0.4 0.6-1.1 1.7-2 3.3-0.9 1.5-2.1 3.5-3.3 5.5-0.3 0.5-0.6 1-0.9 1.6-0.2 0.3-0.3 0.5-0.5 0.8s-0.3 0.5-0.5 0.8c-0.6 1-1.2 2.1-1.9 3.1-6 9.5-12.3 19.1-19.1 28.3-0.9 1.2-1.8 2.4-2.6 3.6-0.9 1.2-1.7 2.4-2.6 3.6-1.8 2.3-3.6 4.6-5.5 6.9-3.7 4.4-7.6 8.6-11.9 12.1l-0.8 0.6c-0.3 0.2-0.5 0.4-0.8 0.6l-0.8 0.6-0.8 0.6c-0.3 0.2-0.6 0.4-0.8 0.6l-0.9 0.5-0.4 0.3-0.2 0.1-0.2 0.1c-0.3 0.2-0.5 0.3-0.8 0.4-2.2 1.1-4.5 1.8-6.4 1.8-0.9 0-1.8-0.2-2.5-0.5s-1.4-0.8-2-1.4c-1.3-1.3-2.3-3.3-2.9-5.7-0.7-2.3-1-4.9-1.1-7.5s-0.1-5.3 0.1-8c0-0.7 0.1-1.3 0.2-2s0.1-1.3 0.2-2c0.2-1.4 0.3-2.7 0.5-4.1s0.4-2.7 0.6-4 0.4-2.7 0.7-4c0.1-0.7 0.3-1.5 0.5-2.4s0.4-1.9 0.6-2.9 0.5-2 0.7-2.9c0.1-0.4 0.2-0.9 0.3-1.3s0.2-0.8 0.3-1.1c1.2-5.2 2.6-10.7 4.3-16.3s3.7-11.3 6-16.8c1.1-2.8 2.3-5.5 3.6-8.2 0.6-1.3 1.3-2.7 1.9-4 0.7-1.3 1.3-2.6 2-3.8 1.4-2.5 2.8-4.8 4.3-6.8 0.8-1 1.6-2 2.3-2.8 0.4-0.4 0.7-0.8 1.1-1.1 0.2-0.2 0.3-0.3 0.5-0.4l0.2-0.2 0.1-0.1s0.1-0.1 0.2-0.1 0.2-0.1 0.3-0.1h0.1 0.1c0.1 0.1 0.2 0.2 0.3 0.2l0.3 0.3c0.4 0.4 0.8 0.9 1.1 1.4s0.6 1 0.9 1.5c0.5 1 0.9 1.8 1.1 2.4s0.4 0.9 0.4 0.9c0.2 0.6 0.3 1.1 0.4 1.6s0.3 1 0.4 1.3 0.2 0.5 0.3 0.4c0 0 0.1-0.1 0.1-0.3s0.1-0.4 0.1-0.7v-0.9c0-0.3 0-0.6-0.1-0.9l-0.3-2.1c-0.3-1.5-0.8-3.1-1.4-4.4-0.3-0.7-0.7-1.3-1-1.9-0.1-0.1-0.2-0.3-0.3-0.4 0-0.1-0.1-0.1-0.1-0.2s-0.1-0.1-0.1-0.2c-0.1-0.2-0.3-0.3-0.4-0.5-0.3-0.3-0.6-0.5-0.9-0.6s-0.6-0.2-0.8-0.3h-0.2-0.2c-0.1 0-0.1-0.1-0.1-0.1s0-0.1 0.1-0.1h0.2 0.2c0.3 0 0.8 0.1 1.2 0.3 0.5 0.2 0.9 0.6 1.3 1h0.1c0.1 0 0.1 0 0.2 0.1 0.1 0 0.2 0.1 0.3 0.2s0.2 0.2 0.4 0.3c0.6 0.4 1.3 1.2 1.9 2.2s1.2 2.1 1.6 3.1c0.4 1.1 0.7 2 0.8 2.7 0.1 0.3 0.2 0.9 0.3 1.6s0.2 1.6 0.3 2.6c0.2 2 0.2 4.4 0.2 6.8s-0.1 4.8 0 6.8c0 2 0.1 3.5 0.2 4.2 0.1 2.1 0.3 2.1 0.6 0.7 0.1-0.3 0.1-0.8 0.2-1.2 0-0.2 0.1-0.5 0.1-0.8s0.1-0.6 0.1-0.9c0.2-1.2 0.4-2.7 0.7-4.3 0.5-3.2 1.2-7.1 1.4-11.1v-1.5-1.5c0-1-0.1-2-0.3-3-0.3-1.9-0.7-3.7-1.3-5.2-0.5-1.5-0.9-2.3-1-2.6s0.1-0.2 0.4 0.2c0.1 0.2 0.3 0.4 0.5 0.6s0.3 0.5 0.5 0.7c0.3 0.4 0.6 0.8 0.7 0.8-0.5-1.2-1-2.2-1.6-3.2-0.1-0.2-0.3-0.5-0.5-0.7s-0.3-0.5-0.5-0.7-0.3-0.5-0.5-0.7l-0.3-0.3-0.3-0.3c-0.9-1-2-1.9-3.2-2.6s-2.6-1.1-4.1-1.2h-0.7-0.8c-0.3 0-0.5 0.1-0.8 0.1s-0.5 0.1-0.8 0.2c-1.1 0.3-2.1 0.7-3.2 1.4h-0.1c-0.1 0-0.1 0.1-0.2 0.1s-0.2 0.1-0.3 0.2-0.2 0.1-0.4 0.2c-0.6 0.4-1.3 0.9-2.1 1.6-0.4 0.4-0.8 0.7-1.2 1.2l-0.3 0.3-0.3 0.3c-0.2 0.2-0.4 0.4-0.6 0.7-0.8 0.9-1.7 2-2.6 3.1-1.7 2.3-3.4 4.9-4.8 7.3-1.4 2.5-2.7 4.9-3.6 6.8 0 0-0.3 0.7-1 2.3-0.1 0.2-0.2 0.4-0.3 0.7-0.1 0.2-0.2 0.5-0.3 0.8-0.2 0.5-0.5 1.1-0.8 1.8-0.6 1.3-1.3 3-2.1 4.9-0.3 0.7-0.5 1.2-0.6 1.5-0.1 0.4-0.2 0.6-0.2 0.8-0.1 0.3 0 0.4 0 0.4-0.1-0.1-0.1-0.1-0.3-0.1-0.8 2.7-2.9 8-3.7 10.7-0.1 0-0.1 0-0.3-0.1-1.5 5.5-3.3 10.8-4.4 16.4-0.1 0-0.1 0-0.3-0.1-0.2 0.7-0.3 1.4-0.5 2-0.1 0.6-0.3 1.3-0.4 1.8-0.2 1-0.4 1.7-0.5 1.7s-0.1 0-0.3-0.1c-0.1 0.3-0.2 0.7-0.3 1.1s-0.2 0.9-0.3 1.3c-0.2 0.9-0.3 1.9-0.5 2.7-0.1 0.4-0.1 0.9-0.2 1.2-0.1 0.4-0.1 0.7-0.2 1-0.1 0.6-0.2 0.9-0.3 0.9h0.3l-0.3 2.1c-0.1 0.7-0.2 1.3-0.3 2s-0.2 1.3-0.3 2c0 0.3-0.1 0.6-0.1 1 0 0.3-0.1 0.6-0.1 0.9-0.2 1.3-0.3 2.5-0.5 3.7-0.1 1.2-0.3 2.4-0.4 3.5-0.1 0.6-0.1 1.1-0.2 1.7s-0.1 1.2-0.2 1.7c-0.1 1.1-0.2 2.3-0.2 3.4-0.1 2.3-0.1 4.5 0 6.8 0.1 3 0.4 6.2 1.3 9.6 0.4 1.7 1 3.4 1.9 5.2 0.6 1.2 1.3 2.5 2.2 3.7 2.1 2.3 2 2.3 4.7 4.5 0.7 0.4 1.4 0.9 2.2 1.2 1.1 0.5 2.3 0.9 3.5 1.1s2.4 0.3 3.5 0.3c2.3 0 4.5-0.4 6.4-1.1 2-0.6 3.8-1.4 5.5-2.4 0.4-0.2 0.8-0.5 1.2-0.7l1.2-0.7c0.4-0.2 0.8-0.5 1.1-0.7l1.1-0.8c0.7-0.5 1.4-1.1 2.2-1.6l1-0.8c0.3-0.3 0.7-0.6 1-0.9 2.7-2.3 5.1-4.8 7.4-7.3s4.4-5.1 6.4-7.7l3-3.9c1-1.3 1.9-2.6 2.8-3.9 1.6-2.3 3.1-4.7 1.2-2.6 0.8-1.1 1.6-2.3 2.5-3.4 0.4-0.6 0.8-1.1 1.2-1.7s0.8-1.1 1.2-1.7c1.6-2.3 1.9-2.9 2.2-3.6 0.2-0.3 0.3-0.6 0.6-1.2 0.3-0.5 0.8-1.3 1.5-2.4l2.3-3.5c0.8-1.2 1.5-2.3 2.2-3.5l4.4-7.1 4.3-7.2c0.4-0.6 0.7-1.2 1.1-1.8l1-1.8 2.1-3.6c5.5-9.7 10.8-19.4 15.9-29.3l1.9-3.7 0.9-1.9c0.3-0.6 0.6-1.2 0.9-1.9l3.7-7.5 3.9-6.7 0.9-1.9 0.9-1.9 1.7-3.8c4.6-10.1 9.1-20.2 13.3-30.5-2.2 5.2-4.2 9.6-6.2 14z">
                    </path>
                    <path class="loader_svg-fill" d="m216.5 100.7l-3.7-6.4-5.6 8 1.6 2.9c1.9 3.2 1.9 9.1 0 12.3l-43.8 75.9c-1.9 3.2-6.9 6.2-10.7 6.2h-87.5c-3.2 0-7.4-2.2-9.7-4.8l-6.1 6.1c4 3.6 10.8 7.5 15.8 7.5h87.6c6.9 0 14.9-4.6 18.3-10.6l43.8-75.9c3.4-5.9 3.4-15.2 0-21.2z">
                    </path>
                    <path class="loader_svg-fill" d="m33.2 171.1l6-7.2-26.9-46.4c-1.9-3.2-1.9-9.1 0-12.3l43.8-75.9c1.9-3.2 6.9-6.2 10.7-6.2h87.6c3.7 0 8.8 2.9 10.7 6.2l23.8 41.3 5.3-8.6-21.4-37.1c-3.4-5.9-11.5-10.6-18.3-10.6h-87.7c-6.9 0-14.9 4.6-18.3 10.6l-43.8 75.8c-3.4 5.9-3.4 15.2 0 21.2l28.5 49.2z">
                    </path>
                </g>
            </svg>